<svg width="38" height="40" viewBox="0 0 38 40" fill="none" xmlns="http://www.w3.org/2000/svg">
<path fill-rule="evenodd" clip-rule="evenodd" d="M14.7195 0.58547C4.17674 3.72406 3.43331 12.6883 12.5105 27.2261L13.7419 29.1984L11.9327 29.4066C-5.24722 31.384 -3.43081 38.228 14.5136 39.1316C37.8252 40.305 47.6324 31.9108 25.8751 29.4066L24.066 29.1984L25.2973 27.2261C27.4181 23.8296 30.5007 17.794 31.3078 15.4591C34.4396 6.39482 24.6603 -2.374 14.7195 0.58547ZM21.0392 2.062C32.3109 4.28545 32.6112 12.3282 22.033 28.6982C18.6092 33.9968 13.3173 28.8046 8.5616 15.4805C5.81926 7.79669 12.6841 0.414041 21.0392 2.062ZM16.8379 7.18724C14.4767 8.0588 12.7478 10.8625 13.2385 13.0241C14.5552 18.8239 23.2526 18.8239 24.5694 13.0241C25.4275 9.24534 20.7758 5.73378 16.8379 7.18724ZM21.2761 9.57186C22.4579 10.4973 22.9128 12.0138 22.3914 13.2901C21.1628 16.2973 16.645 16.2973 15.4164 13.2901C14.5428 11.1522 16.3875 8.75156 18.9039 8.75156C19.8226 8.75156 20.5495 9.00278 21.2761 9.57186ZM16.6888 33.5046C17.623 34.7821 18.6198 35.8277 18.9039 35.8277C19.188 35.8277 20.1849 34.7821 21.1191 33.5046L22.8174 31.1815L24.5625 31.1857C28.4987 31.1953 35.7767 33.1377 35.7767 34.1791C35.7767 37.8272 9.34533 38.5885 3.03904 35.1221C0.504332 33.7286 6.78032 31.2779 13.0732 31.2039L14.9905 31.1815L16.6888 33.5046Z" fill="white"/>
</svg>
