<svg width="39" height="27" viewBox="0 0 39 27" fill="none" xmlns="http://www.w3.org/2000/svg">
<path fill-rule="evenodd" clip-rule="evenodd" d="M0.8125 0.792513C0.0361562 1.54976 0 2.11324 0 13.4038V25.2221L0.940062 26.084C1.87606 26.9411 1.96706 26.9455 19.5569 26.9455H37.2332L38.1168 26.0285C38.9825 25.1294 39 24.8802 39 13.3483C39 2.11324 38.9634 1.54936 38.1875 0.792513C37.3998 0.0241716 36.8335 0 19.5 0C2.16653 0 1.60022 0.0241716 0.8125 0.792513ZM37.1719 13.4727V25.1623H19.5H1.82812L1.72006 13.8741C1.66075 7.66559 1.70138 2.35892 1.81066 2.08114C1.96788 1.68092 5.64972 1.5981 19.5906 1.67973L37.1719 1.78316V13.4727ZM3.83419 4.00259C3.49537 4.53714 3.58678 4.62511 11.375 11.2747C14.8383 14.2316 18.109 16.7636 18.6428 16.9019C19.177 17.0398 20.0472 16.9935 20.5762 16.7989C21.7068 16.3824 35.3438 4.84622 35.3438 4.30612C35.3438 2.89347 33.5591 4.02518 27.1907 9.47687C23.3504 12.7642 19.8896 15.454 19.5 15.454C19.1104 15.454 15.667 12.7793 11.8483 9.51016C8.02913 6.24104 4.72591 3.56631 4.50734 3.56631C4.28919 3.56631 3.98612 3.76246 3.83419 4.00259Z" fill="white"/>
</svg>
