<svg width="50" height="42" viewBox="0 0 50 42" fill="none" xmlns="http://www.w3.org/2000/svg">
<path fill-rule="evenodd" clip-rule="evenodd" d="M24.4141 6.83579C1.00586 14.2345 0 14.6425 0 16.7444C0 18.3314 1.20117 19.1628 7.01211 21.5995L12.6574 23.9665L14.348 31.4257C16.0328 38.86 16.4035 39.8725 17.4387 39.8725C17.7391 39.8725 19.984 38.4524 22.4277 36.7165L26.8703 33.5609L31.8484 37.4665C34.5867 39.6149 37.1102 41.392 37.4562 41.4157C38.8094 41.5087 39.6758 41.2874 40.3137 40.6867C40.759 40.267 42.4684 33.9757 45.4895 21.6382C47.9703 11.506 50 2.88704 50 2.48466C50 1.65291 48.625 0.309287 47.4609 0.00366207C47.0047 -0.116338 37.4227 2.72429 24.4141 6.83579ZM42.6059 20.9234C40.2445 30.5725 38.2613 38.5165 38.1988 38.5769C38.1359 38.6373 35.1844 36.403 31.6398 33.6123C28.0953 30.8215 24.7133 28.174 24.1242 27.7293L23.0531 26.9208L30.8574 19.0529C38.8594 10.9859 39.7258 9.76566 37.7848 9.29804C37.1227 9.13866 33.9805 10.6417 25.3973 15.2242L13.8969 21.3637L8.51836 19.111C5.56055 17.8717 3.21602 16.7853 3.30859 16.6964C3.72461 16.297 46.6918 2.87241 46.7895 3.11091C46.8496 3.25866 44.9672 11.2743 42.6059 20.9234ZM27.5266 18.2163C26.6801 19.0927 24.5469 21.2444 22.7852 22.9975C19.7168 26.0515 19.543 26.3185 18.6355 29.3725L17.6883 32.56L16.8535 28.9975C15.4879 23.1697 14.9227 24.0955 22.2656 20.1322C25.8105 18.2189 28.7906 16.6465 28.8879 16.6379C28.9852 16.6297 28.3727 17.3399 27.5266 18.2163ZM23.1941 30.6569C23.8125 31.1422 24.2227 31.6882 24.1055 31.8704C23.7609 32.4055 20.3125 34.6957 20.3125 34.3893C20.3125 33.712 21.6109 29.749 21.8289 29.761C21.9617 29.7685 22.5762 30.1717 23.1941 30.6569Z" fill="white"/>
</svg>
