<svg width="61" height="39" viewBox="0 0 61 39" fill="none" xmlns="http://www.w3.org/2000/svg">
<path fill-rule="evenodd" clip-rule="evenodd" d="M1.1207 1.17156C-0.320423 2.61221 -0.360454 4.12053 0.935796 8.14367C4.29508 18.5732 11.8686 29.4675 19.1305 34.317C24.8816 38.1571 33.1252 39.3333 35.916 36.7112C37.0078 35.6856 37.1226 35.2229 37.1226 31.8484C37.1226 29.365 37.3051 28.1188 37.6683 28.1188C37.9685 28.1188 40.4471 30.3167 43.1764 33.0036L48.1393 37.8883L53.3338 38.0489C58.3625 38.2048 58.5665 38.1714 59.7393 36.9986C60.4632 36.2747 60.9488 35.251 60.9464 34.4547C60.9398 32.4584 58.6289 28.8217 54.572 24.4221C52.5761 22.2575 50.9429 20.3513 50.9429 20.1855C50.9429 20.0196 52.1186 18.0991 53.5554 15.9174C57.204 10.3773 59.6087 5.48445 59.6655 3.48432C59.7441 0.702623 58.414 0.00159921 53.057 0.00159921C50.6084 0.00159921 48.0473 0.255607 47.3659 0.566326C46.4918 0.964255 45.3605 2.61555 43.5281 6.16594C42.0994 8.93524 40.1269 12.2731 39.1456 13.5836L37.3609 15.9664L37.1226 8.98528C36.8043 -0.340572 37.1231 0.00159921 28.7618 0.00159921C23.3523 0.00159921 22.301 0.125982 21.3741 0.876568C19.9697 2.01365 20.015 4.25826 21.4833 6.31701C22.4721 7.70285 22.5875 8.39625 22.5875 12.9469C22.5875 17.074 22.4707 17.9323 21.9655 17.5134C20.8075 16.5526 17.6479 10.7471 15.9366 6.43519C13.5442 0.406678 12.9847 0.00159921 7.05105 0.00159921C2.63188 0.00159921 2.20631 0.0854742 1.1207 1.17156ZM12.502 8.16559C15.6949 15.986 19.5222 21.7057 22.3439 22.8747C24.2921 23.6815 25.9944 22.5845 26.4347 20.2388C27.029 17.0697 26.4162 7.05568 25.524 5.36293L24.7077 3.8141H29.0087H33.3101V10.7019C33.3101 18.0862 33.7119 19.8609 35.4851 20.3055C38.4303 21.0447 42.7432 16.3701 47.0732 7.74574L49.0472 3.8141H52.4103C55.6761 3.8141 55.7634 3.84508 55.4469 4.88637C55.0523 6.18357 52.5313 10.4669 49.4494 15.0767C45.7737 20.5748 45.7212 20.3256 52.0581 27.4607C54.113 29.7744 56.1022 32.263 56.4782 32.9907L57.1625 34.3141H53.5726H49.9822L45.5778 29.8697C40.6606 24.9077 37.9099 23.3727 35.5466 24.2715C33.8348 24.922 33.3101 26.4627 33.3101 30.84V34.4523L29.9894 34.174C22.4507 33.5421 15.9713 28.4286 9.84608 18.2773C7.68249 14.6916 4.67967 7.88204 4.04632 5.12465L3.74513 3.8141H7.235H10.7253L12.502 8.16559Z" fill="white"/>
</svg>
