<svg width="46" height="45" viewBox="0 0 46 45" fill="none" xmlns="http://www.w3.org/2000/svg">
<path fill-rule="evenodd" clip-rule="evenodd" d="M16.91 0.637707C11.5571 2.05933 7.12109 5.17521 3.95293 9.73821C-0.485016 16.1297 -1.21045 24.2976 2.02355 31.4608L2.93962 33.4896L1.47307 38.728C0.666484 41.6087 0.00383589 44.1632 7.76439e-06 44.404C-0.00458599 44.6908 2.0293 44.32 5.88613 43.3311L11.7791 41.8202L14.2973 42.8068C19.138 44.704 23.2643 44.9976 28.0931 43.7878C32.399 42.709 35.3524 41.038 38.692 37.7912C45.9 30.7832 47.4711 21.169 42.8941 12.0718C40.3331 6.98158 35.5082 2.89296 29.8525 1.02096C26.238 -0.175668 20.5995 -0.342543 16.91 0.637707ZM27.1571 4.23808C36.7615 6.37783 43.2417 16.2445 41.2109 25.6348C39.7704 32.2956 35.4867 37.1732 28.8955 39.6572C27.1066 40.3315 25.7943 40.5287 22.9619 40.5497C19.234 40.5775 16.8954 40.0521 13.6595 38.4598C12.2087 37.7458 12.1964 37.7462 8.77866 38.6612C6.89446 39.166 5.35517 39.469 5.35862 39.3347C5.36168 39.2008 5.7621 37.6738 6.24827 35.9421L7.1318 32.7928L6.06452 30.8631C2.18434 23.845 3.57624 14.9151 9.44705 9.16446C14.1767 4.53096 20.5345 2.76246 27.1571 4.23808ZM12.8813 12.9628C11.809 14.0597 11.092 15.8946 11.0985 17.5258C11.1092 20.2498 15.3194 26.1055 19.4423 29.1306C22.2112 31.162 26.4133 32.9035 28.5467 32.9035C31.4017 32.9035 33.9023 31.0633 34.127 28.798C34.2422 27.631 34.1052 27.4202 32.7236 26.641C31.8814 26.1658 30.5454 25.5816 29.7545 25.3427C28.3503 24.9186 28.2876 24.9418 27.0537 26.3398C25.5723 28.0187 24.9548 27.9898 22.0515 26.1058C20.0881 24.832 17.2197 21.5916 17.2197 20.6477C17.2197 20.338 17.5642 19.6551 17.9853 19.1308C18.4064 18.6062 18.7509 17.8851 18.7509 17.5277C18.7509 16.8111 17.2962 13.1128 16.7232 12.3722C16.0532 11.5063 13.9968 11.8228 12.8813 12.9628Z" fill="white"/>
</svg>
